<?xml version="1.0" standalone="no"?>
<!DOCTYPE svg PUBLIC "-//W3C//DTD SVG 20010904//EN"
 "http://www.w3.org/TR/2001/REC-SVG-20010904/DTD/svg10.dtd">
<svg version="1.0" xmlns="http://www.w3.org/2000/svg"
 width="150.000000pt" height="150.000000pt" viewBox="0 0 150.000000 150.000000"
 preserveAspectRatio="xMidYMid meet">
<metadata>
Created by potrace 1.11, written by Peter Selinger 2001-2013
</metadata>
<g transform="translate(0.000000,150.000000) scale(0.100000,-0.100000)"
fill="#000000" stroke="none">
<path d="M485 1436 c-43 -18 -80 -65 -105 -133 -18 -49 -21 -74 -18 -158 3
-85 8 -109 32 -158 47 -96 122 -133 200 -99 55 25 99 88 117 167 18 80 8 220
-20 275 -54 105 -124 142 -206 106z"/>
<path d="M915 1438 c-76 -42 -117 -122 -123 -242 -8 -158 36 -269 123 -307 38
-17 51 -18 87 -9 89 25 139 115 146 265 3 85 1 109 -18 158 -36 96 -93 147
-162 147 -18 0 -42 -6 -53 -12z"/>
<path d="M159 1016 c-59 -34 -77 -148 -39 -250 23 -59 86 -138 131 -161 37
-20 99 -19 127 1 73 51 70 208 -6 319 -57 82 -155 123 -213 91z"/>
<path d="M1229 1007 c-51 -27 -112 -103 -134 -166 -8 -25 -15 -71 -15 -103 0
-96 40 -148 113 -148 51 0 86 20 136 76 98 112 110 303 20 349 -39 21 -69 19
-120 -8z"/>
<path d="M713 750 c-63 -13 -95 -33 -156 -99 -57 -63 -165 -218 -211 -305 -58
-110 -22 -211 85 -236 65 -16 118 -7 199 33 58 28 74 32 150 32 78 0 91 -3
150 -35 57 -30 74 -34 135 -34 114 0 175 50 175 142 0 52 -20 93 -116 237 -91
137 -172 228 -221 248 -50 20 -138 28 -190 17z"/>
</g>
</svg>
